<svg id="Layer_3" enable-background="new 0 0 64 64" height="512" viewBox="0 0 64 64" width="512" xmlns="http://www.w3.org/2000/svg"><g><path d="m2 19h60v26h-60z" fill="#4d5d7a"/><path d="m2 25h60v14h-60z" fill="#8892a0"/><path d="m8 25h48v14h-48z" fill="#c1c8d1"/><g fill="#fff"><path d="m5 21h2v2h-2z"/><path d="m9 21h2v2h-2z"/><path d="m13 21h2v2h-2z"/><path d="m17 21h2v2h-2z"/><path d="m21 21h2v2h-2z"/><path d="m25 21h2v2h-2z"/><path d="m29 21h2v2h-2z"/><path d="m33 21h2v2h-2z"/><path d="m37 21h2v2h-2z"/><path d="m41 21h2v2h-2z"/><path d="m45 21h2v2h-2z"/><path d="m49 21h2v2h-2z"/><path d="m53 21h2v2h-2z"/><path d="m57 21h2v2h-2z"/><path d="m5 41h2v2h-2z"/><path d="m9 41h2v2h-2z"/><path d="m13 41h2v2h-2z"/><path d="m17 41h2v2h-2z"/><path d="m21 41h2v2h-2z"/><path d="m25 41h2v2h-2z"/><path d="m29 41h2v2h-2z"/><path d="m33 41h2v2h-2z"/><path d="m37 41h2v2h-2z"/><path d="m41 41h2v2h-2z"/><path d="m45 41h2v2h-2z"/><path d="m49 41h2v2h-2z"/><path d="m53 41h2v2h-2z"/><path d="m57 41h2v2h-2z"/><path d="m50.895 31.553-2-4c-.174-.349-.543-.548-.924-.553-.389.012-.736.248-.89.606l-2.273 5.303-.976-1.464c-.186-.278-.498-.445-.832-.445h-4c-.379 0-.725.214-.895.553l-.974 1.949-2.195-5.854c-.14-.372-.487-.626-.884-.647-.408-.024-.769.196-.947.552l-1.723 3.447h-3.382c-.315 0-.611.148-.8.4l-1.74 2.318-1.49-5.961c-.102-.406-.445-.706-.861-.752-.411-.043-.815.173-1.003.547l-1.724 3.448h-6.382v2h7c.379 0 .725-.214.895-.553l.791-1.582 1.344 5.377c.094.375.394.662.772.738.066.013.133.02.198.02.311 0 .609-.146.8-.4l2.7-3.6h3.5c.379 0 .725-.214.895-.553l.974-1.949 2.195 5.854c.14.372.487.626.884.647.405.021.769-.196.947-.552l1.723-3.447h2.847l1.703 2.555c.204.305.559.477.923.441.366-.034.683-.265.828-.603l2.151-5.018 1.036 2.071z"/></g><path d="m49 5v3.556c-.591-.344-1.268-.556-2-.556-2.206 0-4 1.794-4 4s1.794 4 4 4 4-1.794 4-4v-6h4v-2h-5c-.552 0-1 .447-1 1zm-2 9c-1.103 0-2-.897-2-2s.897-2 2-2 2 .897 2 2-.897 2-2 2z" fill="#f5b953"/><path d="m14 49v3.556c-.591-.344-1.268-.556-2-.556-2.206 0-4 1.794-4 4s1.794 4 4 4 4-1.794 4-4v-6h4v-2h-5c-.552 0-1 .447-1 1zm-2 9c-1.103 0-2-.897-2-2s.897-2 2-2 2 .897 2 2-.897 2-2 2z" fill="#f5b953"/></g></svg>